<?xml version="1.0" standalone="no"?><!DOCTYPE svg PUBLIC "-//W3C//DTD SVG 1.1//EN" "http://www.w3.org/Graphics/SVG/1.1/DTD/svg11.dtd"><svg t="1634108844125" class="icon" viewBox="0 0 1024 1024" version="1.1" xmlns="http://www.w3.org/2000/svg" p-id="8847" xmlns:xlink="http://www.w3.org/1999/xlink" width="1rem" height="1rem"><defs><style type="text/css"></style></defs><path d="M484.5 272.4c-9.7 14.4-5.9 34 8.6 43.7 5.4 3.6 11.5 5.3 17.5 5.3 10.1 0 20.1-4.9 26.1-13.9 17.6-26.1 37.5-83.8 0.8-134.1-20.2-27.6 0.2-62.8 1.4-64.8 9-14.7 4.5-34-10.2-43.2-14.8-9.2-34.2-4.7-43.3 10.1-16.6 26.7-35 85.2 1.3 134.9 19.9 27.2-1.4 60.8-2.2 62z m202.9 36.2c-9.5 14.5-5.4 34 9.1 43.6 5.3 3.5 11.3 5.1 17.2 5.1 10.3 0 20.3-5 26.4-14.2 1.9-2.9 46.3-72.3 2.6-148.6-24.5-42.8-1.5-84.2-0.2-86.4 8.8-14.9 3.9-34.1-10.9-43-14.9-8.9-34.2-4.1-43.2 10.8-1.8 3-43.6 74.4-0.3 149.9 24.2 42.3 0.2 81.4-0.7 82.8z m295 68.9H41.6C19.2 377.5 1 395.7 1 418.1s18.2 40.6 40.6 40.6H69v302c0 111.8 91 202.8 202.8 202.8h480.4c111.8 0 202.8-91 202.8-202.8v-302h27.5c22.4 0 40.6-18.2 40.6-40.6s-18.3-40.6-40.7-40.6zM873.8 760.6c0 67.1-54.6 121.7-121.7 121.7H271.8c-67.1 0-121.7-54.6-121.7-121.7v-69.8c53.6 23 150.8 45.7 301.4 14.2 19.1-4 38.3-8.5 57.7-13.1 110.4-26.1 224.3-52.9 364.5 12.4v56.3z m0-91.7c-144.5-62.1-264.8-34-372-8.6-19.1 4.5-38.1 9-56.9 12.9-156.2 32.6-250.8 3.3-294.8-18.4V458.6h723.7v210.3zM281.1 308.6c-9.5 14.5-5.4 34 9.1 43.6 5.3 3.5 11.3 5.1 17.2 5.1 10.3 0 20.3-5 26.4-14.2 1.9-2.9 46.3-72.3 2.6-148.6-24.5-42.8-1.5-84.2-0.2-86.4 8.8-14.9 3.9-34.1-10.9-43-15-8.9-34.3-4.1-43.3 10.8-1.8 3-43.6 74.4-0.3 149.9 24.2 42.3 0.3 81.4-0.6 82.8z" p-id="8848" fill="#ffffff"></path></svg>