<?xml version="1.0" standalone="no"?><!DOCTYPE svg PUBLIC "-//W3C//DTD SVG 1.1//EN" "http://www.w3.org/Graphics/SVG/1.1/DTD/svg11.dtd"><svg t="1634544670317" class="icon" viewBox="0 0 1024 1024" version="1.1" xmlns="http://www.w3.org/2000/svg" p-id="10969" xmlns:xlink="http://www.w3.org/1999/xlink" width="1rem" height="1rem"><defs><style type="text/css"></style></defs><path d="M511.755775 1022.25514a508.987209 508.987209 0 0 1-361.837373-149.546109C53.253174 776.206657 0.000056 647.924571 0.000056 511.383483c0-136.494559 53.276383-264.823174 149.895081-361.279019A508.917415 508.917415 0 0 1 511.73251 0.53509c136.680677 0 265.148881 53.113529 361.790844 149.569374a506.777053 506.777053 0 0 1 149.941611 361.255754 506.800318 506.800318 0 0 1-149.941611 361.325548c-96.595433 96.43258-225.110167 149.569374-361.767579 149.569374z m0-948.435942A436.214927 436.214927 0 0 0 201.519719 202.054754a434.121095 434.121095 0 0 0-128.421674 309.351994c0 116.835806 45.575736 226.738703 128.375145 309.305464a436.307986 436.307986 0 0 0 310.25932 128.212291c117.208043 0 227.413382-45.529206 310.236056-128.212291 82.776144-82.659821 128.39841-192.492923 128.375145-309.351994 0-116.835806-45.575736-226.692173-128.375145-309.282199A436.238192 436.238192 0 0 0 511.755775 73.819198z m0 0" p-id="10970" fill="#d81e06"></path><path d="M791.165976 512.174486a46.529592 46.529592 0 0 1-46.529592 46.529592H256.075666a46.529592 46.529592 0 0 1 0-93.059184h488.560718a46.529592 46.529592 0 0 1 46.529592 46.529592z" p-id="10971" fill="#d81e06"></path></svg>