<?xml version="1.0" standalone="no"?><!DOCTYPE svg PUBLIC "-//W3C//DTD SVG 1.1//EN" "http://www.w3.org/Graphics/SVG/1.1/DTD/svg11.dtd"><svg t="1634544617045" class="icon" viewBox="0 0 1024 1024" version="1.1" xmlns="http://www.w3.org/2000/svg" p-id="9931" xmlns:xlink="http://www.w3.org/1999/xlink" width="1rem" height="1rem"><defs><style type="text/css"></style></defs><path d="M512 64A448 448 0 1 1 64 512 448 448 0 0 1 512 64m0-64a512 512 0 1 0 512 512A512 512 0 0 0 512 0z" p-id="9932" fill="#1296db"></path><path d="M790.4 304.96a32 32 0 0 0-22.72 9.28L428.16 653.76l-160-160a32 32 0 0 0-42.56 0l-1.6 2.88a32 32 0 0 0 0 42.88l182.4 182.08a28.8 28.8 0 0 0 21.12 8.96 29.44 29.44 0 0 0 21.44-8.96L812.8 359.68a32 32 0 0 0 0-45.12 32 32 0 0 0-22.4-9.28z" p-id="9933" fill="#1296db"></path></svg>