<?xml version="1.0" standalone="no"?><!DOCTYPE svg PUBLIC "-//W3C//DTD SVG 1.1//EN" "http://www.w3.org/Graphics/SVG/1.1/DTD/svg11.dtd"><svg t="1634109146536" class="icon" viewBox="0 0 1024 1024" version="1.1" xmlns="http://www.w3.org/2000/svg" p-id="13019" xmlns:xlink="http://www.w3.org/1999/xlink" width="1rem" height="1rem"><defs><style type="text/css"></style></defs><path d="M899.4816 512.9216a89.4976 89.4976 0 0 0-84.7872-67.4816H474.0096v-112.64H875.52a25.6 25.6 0 0 0 0-51.2H474.0096v-30.72H875.52a25.6 25.6 0 0 0 0-51.2H555.4176V194.56a66.6624 66.6624 0 0 0-40.96-61.44 25.2928 25.2928 0 0 0-15.1552-5.12H306.0736a66.4576 66.4576 0 0 0-66.2528 66.56v5.12H143.36a25.6 25.6 0 0 0 0 51.2h96.4608v30.72H143.36a25.6 25.6 0 0 0 0 51.2h96.4608v112.64h-25.3952a89.7024 89.7024 0 0 0-84.8896 67.4816 267.264 267.264 0 0 0 171.3152 312.0128V849.92a46.08 46.08 0 0 0 45.8752 46.08h335.5648a46.08 46.08 0 0 0 45.9776-46.08v-24.9856a267.0592 267.0592 0 0 0 171.2128-312.0128zM474.0096 199.68V194.56a15.1552 15.1552 0 1 1 30.72 0v5.12z m-60.8256-20.48h11.4688a68.5056 68.5056 0 0 0-1.8432 15.36v250.88h-40.2432V194.56a15.4624 15.4624 0 0 1 15.0528-15.36zM291.0208 194.56a15.4624 15.4624 0 0 1 15.0528-15.36h27.136a63.0784 63.0784 0 0 0-1.8432 15.36v250.88h-40.3456z m-76.5952 302.08h600.2688A38.7072 38.7072 0 0 1 849.92 524.0832c1.7408 7.9872 2.9696 15.872 3.8912 23.7568H175.7184a215.9616 215.9616 0 0 1 3.7888-23.7568 38.912 38.912 0 0 1 34.9184-27.4432zM696.32 781.312a25.6 25.6 0 0 0-18.944 24.7808v38.7072H352.0512v-38.7072a25.4976 25.4976 0 0 0-19.0464-24.7808 214.2208 214.2208 0 0 1-156.9792-182.272h677.0688A214.2208 214.2208 0 0 1 696.32 781.312z" fill="#EB453C" p-id="13020"></path></svg>