<?xml version="1.0" standalone="no"?><!DOCTYPE svg PUBLIC "-//W3C//DTD SVG 1.1//EN" "http://www.w3.org/Graphics/SVG/1.1/DTD/svg11.dtd"><svg t="1634544486103" class="icon" viewBox="0 0 1024 1024" version="1.1" xmlns="http://www.w3.org/2000/svg" p-id="8028" xmlns:xlink="http://www.w3.org/1999/xlink" width="1rem" height="1rem"><defs><style type="text/css"></style></defs><path d="M451.1 472.5c-9.3 0-16.9-7.6-16.9-16.9 0-56.8-46.2-103-103-103s-103 46.2-103 103c0 9.3-7.6 16.9-16.9 16.9s-16.9-7.6-16.9-16.9c0-75.4 61.3-136.8 136.8-136.8S468 380.2 468 455.6c0 9.3-7.5 16.9-16.9 16.9z m361.3 0c-9.3 0-16.9-7.6-16.9-16.9 0-56.8-46.2-103-103-103s-103 46.2-103 103c0 9.3-7.6 16.9-16.9 16.9-9.3 0-16.9-7.6-16.9-16.9 0-75.4 61.4-136.8 136.8-136.8s136.8 61.4 136.8 136.8c-0.1 9.3-7.6 16.9-16.9 16.9zM180.3 815.2C104.8 732.4 63.2 625 63.2 512.9c0-247.4 201.3-448.7 448.7-448.7s448.7 201.3 448.7 448.7c0 112.1-41.6 219.5-117.1 302.3l-24.9-22.7c69.8-76.6 108.3-175.8 108.3-279.5-0.1-228.9-186.2-415-415-415s-415 186.1-415 414.9c0 103.7 38.5 203 108.3 279.6l-24.9 22.7z m76.9 146.3c-56.3 0-102-45.8-102-102 0-56.3 45.8-102 102-102s102 45.8 102 102c0.1 56.3-45.7 102-102 102z m0-170.3c-37.7 0-68.3 30.6-68.3 68.3 0 37.7 30.6 68.3 68.3 68.3s68.3-30.6 68.3-68.3c0-37.7-30.6-68.3-68.3-68.3z m254.7 170.3c-66.2 0-129.9-14.1-189.4-41.8l14.3-30.6c55 25.7 114 38.7 175.2 38.7 61.2 0 120.1-13 175.1-38.7l14.3 30.6c-59.6 27.8-123.4 41.8-189.5 41.8z m235.2-202.2c55.2-10.7 108.9 25.5 119.6 80.8 10.7 55.2-25.5 108.9-80.8 119.6-55.2 10.7-108.9-25.5-119.6-80.8-10.7-55.2 25.6-108.9 80.8-119.6z m32.4 167.3c37-7.2 61.2-43.1 54.1-80.1-7.2-37-43.1-61.2-80.1-54.1-37 7.2-61.2 43.1-54.1 80.1 7.2 37 43.1 61.2 80.1 54.1z m-268-144c-68.3 0-133.3-39.8-183-112-5.3-7.7-3.3-18.2 4.3-23.5 7.7-5.3 18.2-3.3 23.5 4.3 43.2 62.8 98.3 97.4 155.2 97.4 57.2 0 112.6-34.9 155.9-98.4 5.3-7.7 15.8-9.7 23.4-4.4 7.7 5.3 9.7 15.7 4.4 23.4-49.7 73-115 113.2-183.7 113.2z" p-id="8029" fill="#1296db"></path></svg>